<svg xmlns="http://www.w3.org/2000/svg" xmlns:xlink="http://www.w3.org/1999/xlink">
  <defs>
    <symbol id="check-mark-fill" width="24" height="24" viewBox="0 0 24 24" fill="currentColor">
      <path fill-rule="evenodd" clip-rule="evenodd" d="M19.5673 4.67649C20.0221 4.98981 20.1368 5.6125 19.8235 6.06731L12.0735 17.3173C11.8985 17.5714 11.6159 17.7305 11.3078 17.7483C10.9997 17.7662 10.7006 17.6407 10.4974 17.4085L5.24744 11.4085C4.88375 10.9929 4.92587 10.3611 5.34151 9.99742C5.75715 9.63374 6.38891 9.67586 6.75259 10.0915L11.1559 15.1239L18.1765 4.9327C18.4898 4.47788 19.1125 4.36318 19.5673 4.67649Z" />
    </symbol>
    <symbol  width="24" height="24" viewBox="0 0 24 24" fill="currentColor">
      <path fill-rule="evenodd" clip-rule="evenodd" d="M19.5673 4.67649C20.0221 4.98981 20.1368 5.6125 19.8235 6.06731L12.0735 17.3173C11.8985 17.5714 11.6159 17.7305 11.3078 17.7483C10.9997 17.7662 10.7006 17.6407 10.4974 17.4085L5.24744 11.4085C4.88375 10.9929 4.92587 10.3611 5.34151 9.99742C5.75715 9.63374 6.38891 9.67586 6.75259 10.0915L11.1559 15.1239L18.1765 4.9327C18.4898 4.47788 19.1125 4.36318 19.5673 4.67649Z" />
    </symbol>
    <symbol id="paper-plane-fill" width="24" height="24" viewBox="0 0 24 24" fill="currentColor">
      <path d="M9.21988 4.45148L21.7918 10.3713C23.1096 10.9918 23.7684 11.302 23.8774 11.7755C23.9113 11.9231 23.9113 12.0764 23.8774 12.224C23.7684 12.6975 23.1096 13.0077 21.7918 13.6282L9.21988 19.548C5.68257 21.2136 3.91391 22.0465 2.98921 21.4694C2.70552 21.2924 2.47075 21.0471 2.30636 20.7559C1.77054 19.8067 2.68031 18.0764 4.49983 14.6157L5.34945 12.9997H16.5002C17.0525 12.9997 17.5002 12.552 17.5002 11.9997C17.5002 11.4475 17.0525 10.9997 16.5002 10.9997H5.34945L4.49983 9.3838C2.68031 5.92314 1.77054 4.1928 2.30636 3.24363C2.47075 2.95243 2.70552 2.7071 2.98921 2.53007C3.91391 1.95304 5.68257 2.78585 9.21988 4.45148Z" />
    </symbol>
    <symbol id="paper-plane" width="24" height="24" viewBox="0 0 24 24" fill="currentColor">
      <g clip-path="url(#clip0_11947_127563)"><path fill-rule="evenodd" clip-rule="evenodd" d="M6.97354 3.35309C6.13794 2.95983 5.43505 2.62903 4.88372 2.43938C4.3933 2.27069 3.62941 2.06084 2.96218 2.47711C2.67857 2.65405 2.44383 2.89925 2.27943 3.19031C1.89264 3.87505 2.13558 4.62907 2.3255 5.11166C2.539 5.6542 2.90012 6.342 3.32943 7.15966L5.87073 12.0002L3.32943 16.8408C2.90013 17.6585 2.539 18.3463 2.3255 18.8888C2.13558 19.3714 1.89264 20.1254 2.27943 20.8102C2.44383 21.1012 2.67857 21.3464 2.96218 21.5233C3.62941 21.9396 4.39331 21.7298 4.88372 21.5611C5.43504 21.3714 6.13792 21.0406 6.97351 20.6474L23.426 12.905C23.7765 12.7401 24.0002 12.3876 24.0002 12.0002C24.0002 11.6129 23.7765 11.2603 23.426 11.0954L6.97354 3.35309ZM4.18658 4.37928C4.17633 4.35323 4.16702 4.32877 4.15856 4.30583C4.18185 4.31328 4.20669 4.32151 4.23316 4.33062C4.66845 4.48035 5.27149 4.76252 6.17797 5.18909L18.5266 11.0002H7.6046L5.12901 6.28482C4.66333 5.3978 4.35514 4.80763 4.18658 4.37928ZM7.6046 13.0002L5.12901 17.7156C4.66333 18.6027 4.35514 19.1928 4.18658 19.6212C4.17633 19.6472 4.16702 19.6717 4.15856 19.6946C4.18185 19.6872 4.20669 19.6789 4.23316 19.6698C4.66845 19.5201 5.2715 19.2379 6.17797 18.8114L18.5266 13.0002H7.6046Z" /></g><defs><clipPath id="clip0_11947_127563"><rect width="24" height="24" /></clipPath></defs>
    </symbol>
    <symbol id="special-circle-excalamation-mark-red" width="24" height="24" viewBox="0 0 24 24" fill="currentColor">
      <circle cx="12" cy="12" r="11" /><path d="M13 5C13 4.44772 12.5523 4 12 4C11.4477 4 11 4.44772 11 5V13C11 13.5523 11.4477 14 12 14C12.5523 14 13 13.5523 13 13V5Z" fill="white" /><path d="M12 19.5C12.8284 19.5 13.5 18.8284 13.5 18C13.5 17.1716 12.8284 16.5 12 16.5C11.1716 16.5 10.5 17.1716 10.5 18C10.5 18.8284 11.1716 19.5 12 19.5Z" fill="white" />
    </symbol>
    <symbol id="star-fill" width="24" height="24" viewBox="0 0 24 24" fill="currentColor" >
      <path d="M10.3391 3.34904L8.49992 7.74998L3.88458 8.06609C2.20488 8.18114 1.36503 8.23867 1.09554 8.67925C1.01223 8.81546 0.962744 8.96964 0.951224 9.12889C0.913963 9.64401 1.56346 10.1796 2.86245 11.2507L6.49992 14.25L5.27734 18.8829C4.84805 20.5097 4.63341 21.3231 4.96415 21.7195C5.06641 21.8421 5.19652 21.9384 5.34362 22.0005C5.8194 22.201 6.53466 21.7582 7.9652 20.8727L11.9999 18.375L16.0346 20.8727C17.4652 21.7582 18.1804 22.201 18.6562 22.0005C18.8033 21.9384 18.9334 21.8421 19.0357 21.7195C19.3664 21.3231 19.1518 20.5097 18.7225 18.8829L17.4999 14.25L21.1374 11.2507C22.4364 10.1796 23.0859 9.64401 23.0486 9.12889C23.0371 8.96964 22.9876 8.81546 22.9043 8.67925C22.6348 8.23867 21.795 8.18114 20.1153 8.06609L15.4999 7.74998L13.6607 3.34904C13.0381 1.8591 12.7267 1.11413 12.2328 0.995867C12.0797 0.959223 11.9201 0.959223 11.7671 0.995867C11.2731 1.11413 10.9618 1.8591 10.3391 3.34904Z" />
    </symbol>
    <symbol id="star" width="24" height="24" viewBox="0 0 24 24" fill="currentColor" >
      <path fill-rule="evenodd" clip-rule="evenodd" d="M12 1C12.4066 1 12.7727 1.24617 12.9261 1.6227L15.4409 7.79527L22.0688 8.25237C22.4775 8.28055 22.8277 8.55513 22.9525 8.94528C23.0773 9.33543 22.9516 9.76226 22.6352 10.0224L17.5052 14.2404L19.2171 20.7455C19.3213 21.1414 19.1737 21.5608 18.8445 21.8041C18.5153 22.0475 18.071 22.0656 17.7231 21.8499L12 18.3016L6.27699 21.8499C5.92907 22.0656 5.4848 22.0475 5.15561 21.8041C4.82642 21.5608 4.67879 21.1414 4.78297 20.7455L6.49486 14.2404L1.36494 10.0224C1.04853 9.76226 0.922782 9.33543 1.04761 8.94528C1.17243 8.55513 1.52258 8.28055 1.93125 8.25237L8.55921 7.79527L11.074 1.6227C11.2274 1.24617 11.5935 1 12 1ZM12 4.65043L10.1761 9.1273C10.0322 9.48072 9.69957 9.72137 9.31885 9.74763L4.57751 10.0746L8.26015 13.1026C8.56188 13.3507 8.69153 13.7517 8.59212 14.1295L7.3557 18.8279L11.4731 16.2751C11.7959 16.075 12.2042 16.075 12.527 16.2751L16.6444 18.8279L15.408 14.1295C15.3086 13.7517 15.4382 13.3507 15.7399 13.1026L19.4226 10.0746L14.6812 9.74763C14.3005 9.72137 13.9679 9.48072 13.824 9.1273L12 4.65043Z" />
    </symbol>
    <symbol id="x-fill" width="24" height="24" viewBox="0 0 24 24" fill="currentColor" >
      <path fill-rule="evenodd" clip-rule="evenodd" d="M12 23C18.0751 23 23 18.0751 23 12C23 5.92487 18.0751 1 12 1C5.92487 1 1 5.92487 1 12C1 18.0751 5.92487 23 12 23ZM6.79289 6.79289C7.18342 6.40237 7.81658 6.40237 8.20711 6.79289L12 10.5858L15.7929 6.79289C16.1834 6.40237 16.8166 6.40237 17.2071 6.79289C17.5976 7.18342 17.5976 7.81658 17.2071 8.20711L13.4142 12L17.2071 15.7929C17.5976 16.1834 17.5976 16.8166 17.2071 17.2071C16.8166 17.5976 16.1834 17.5976 15.7929 17.2071L12 13.4142L8.20711 17.2071C7.81658 17.5976 7.18342 17.5976 6.79289 17.2071C6.40237 16.8166 6.40237 16.1834 6.79289 15.7929L10.5858 12L6.79289 8.20711C6.40237 7.81658 6.40237 7.18342 6.79289 6.79289Z" />
    </symbol>
    <symbol id="x" width="24" height="24" viewBox="0 0 24 24" fill="currentColor" >
      <path d="M7.45711 6.04289C7.06658 5.65237 6.43342 5.65237 6.04289 6.04289C5.65237 6.43342 5.65237 7.06658 6.04289 7.45711L10.5858 12L6.04289 16.5429C5.65237 16.9334 5.65237 17.5666 6.04289 17.9571C6.43342 18.3476 7.06658 18.3476 7.45711 17.9571L12 13.4142L16.5429 17.9571C16.9334 18.3476 17.5666 18.3476 17.9571 17.9571C18.3476 17.5666 18.3476 16.9334 17.9571 16.5429L13.4142 12L17.9571 7.45711C18.3476 7.06658 18.3476 6.43342 17.9571 6.04289C17.5666 5.65237 16.9334 5.65237 16.5429 6.04289L12 10.5858L7.45711 6.04289Z" />
    </symbol>
</svg>
